<svg width="28" height="26" viewBox="0 0 28 26" fill="none" xmlns="http://www.w3.org/2000/svg">
<path fill-rule="evenodd" clip-rule="evenodd" d="M25.4545 9.1818H17.4236L18.6327 3.36543L18.6709 2.95816C18.6709 2.43634 18.4545 1.95271 18.1109 1.60907L16.7618 0.272705L8.38727 8.65998C7.91636 9.11816 7.63636 9.75452 7.63636 10.4545V23.1818C7.63636 24.5818 8.78182 25.7272 10.1818 25.7272H21.6364C22.6927 25.7272 23.5964 25.0909 23.9782 24.1745L27.8218 15.2018C27.9364 14.9091 28 14.6036 28 14.2727V11.7273C28 10.3273 26.8545 9.1818 25.4545 9.1818ZM25.4545 14.2727L21.6364 23.1818H10.1818V10.4545L15.7055 4.93085L14.2927 11.7272H25.4545V14.2727ZM5.09091 10.4545H0V25.7272H5.09091V10.4545Z" fill="url(#paint0_linear_212_525)"/>
<defs>
<linearGradient id="paint0_linear_212_525" x1="0" y1="0.272705" x2="25.7728" y2="13.0816" gradientUnits="userSpaceOnUse">
<stop stop-color="#E59357"/>
<stop offset="1" stop-color="#D54E3B"/>
</linearGradient>
</defs>
</svg>
