<svg width="25" height="29" viewBox="0 0 25 29" fill="none" xmlns="http://www.w3.org/2000/svg">
<path fill-rule="evenodd" clip-rule="evenodd" d="M21.9048 0H2.7381C1.23214 0 0 1.23214 0 2.7381V21.9048C0 23.4107 1.23214 24.6429 2.7381 24.6429H8.21429L12.3214 28.75L16.4286 24.6429H21.9048C23.4107 24.6429 24.6429 23.4107 24.6429 21.9048V2.7381C24.6429 1.23214 23.4107 0 21.9048 0ZM21.9048 21.9048H15.2923L14.4845 22.7125L12.3214 24.8756L10.1446 22.6988L9.3506 21.9048H2.7381V2.7381H21.9048V21.9048ZM14.8952 14.8952L12.3214 20.5357L9.74762 14.8952L4.10714 12.3214L9.74762 9.74762L12.3214 4.10714L14.8952 9.74762L20.5357 12.3214L14.8952 14.8952Z" fill="#81859B"/>
</svg>
