<svg width="30" height="30" viewBox="0 0 30 30" fill="none" xmlns="http://www.w3.org/2000/svg">
<path fill-rule="evenodd" clip-rule="evenodd" d="M27.1909 13.6364C26.5636 7.95 22.05 3.43636 16.3636 2.80909V0H13.6364V2.80909C7.95 3.43636 3.43636 7.95 2.80909 13.6364H0V16.3636H2.80909C3.43636 22.05 7.95 26.5636 13.6364 27.1909V30H16.3636V27.1909C22.05 26.5636 26.5636 22.05 27.1909 16.3636H30V13.6364H27.1909ZM15 9.54544C11.9864 9.54544 9.54544 11.9864 9.54544 15C9.54544 18.0136 11.9864 20.4545 15 20.4545C18.0136 20.4545 20.4545 18.0136 20.4545 15C20.4545 11.9864 18.0136 9.54544 15 9.54544ZM5.45451 15C5.45451 20.2773 9.72269 24.5455 15 24.5455C20.2772 24.5455 24.5454 20.2773 24.5454 15C24.5454 9.72274 20.2772 5.45456 15 5.45456C9.72269 5.45456 5.45451 9.72274 5.45451 15Z" fill="#81859B"/>
</svg>
