<svg width="40" height="42" viewBox="0 0 40 42" fill="none" xmlns="http://www.w3.org/2000/svg">
<path d="M14.564 19.0558C18.2439 14.1872 19.8967 10.3319 21.6315 4.00144C21.7085 3.72067 22.1103 3.71515 22.1947 3.99377C24.1542 10.4649 25.908 14.3261 29.2804 18.9679C31.009 21.3471 32.7237 23.8778 33.07 26.7981C34.9914 43.0008 8.79951 42.2414 10.6785 26.7401C11.029 23.8485 12.8076 21.3795 14.564 19.0558Z" fill="#81859B"/>
<path d="M9.46684 9.85281C10.6518 8.28507 11.184 7.04362 11.7427 5.00514C11.7674 4.91473 11.8968 4.91295 11.924 5.00267C12.555 7.08645 13.1198 8.32979 14.2057 9.82451C14.7623 10.5906 15.3145 11.4055 15.426 12.3459C16.0447 17.5634 7.61062 17.3188 8.21566 12.3273C8.32852 11.3961 8.90127 10.6011 9.46684 9.85281Z" fill="#81859B"/>
<path d="M21.281 34.9464C20.8042 34.9464 20.4176 34.5598 20.4176 34.0829V23.4238C20.4176 22.9469 20.8042 22.5604 21.281 22.5604H22.5754C23.0522 22.5604 23.4388 22.9469 23.4388 23.4238V34.0829C23.4388 34.5598 23.0522 34.9464 22.5754 34.9464H21.281ZM16.4007 30.2172C15.9238 30.2172 15.5372 29.8306 15.5372 29.3537V28.153C15.5372 27.6761 15.9238 27.2896 16.4007 27.2896H27.4557C27.9326 27.2896 28.3192 27.6761 28.3192 28.153V29.3537C28.3192 29.8306 27.9326 30.2172 27.4557 30.2172H16.4007Z" fill="#C6C8CE"/>
</svg>
