<svg width="124" height="125" viewBox="0 0 124 125" fill="none" xmlns="http://www.w3.org/2000/svg">
<g filter="url(#filter0_d_127_2696)">
<path d="M91.2034 12.3906C81.8771 12.3906 80.7719 19.0283 68.6746 18.827L68.6811 67.7348C68.6811 69.5128 70.1226 70.9544 71.9007 70.9544H91.2099H110.519C112.297 70.9544 113.739 69.5128 113.739 67.7348L113.732 18.827C101.635 19.028 100.526 12.3906 91.2034 12.3906Z" fill="#E6E9ED"/>
</g>
<g filter="url(#filter1_d_127_2696)">
<path d="M88.9569 61.7966V79.9542C88.9569 84.7673 87.0829 89.2903 83.6817 92.6949C80.2772 96.0961 75.7543 97.9699 70.941 97.9699H53.6689V102.476H70.941C83.3781 102.476 93.4632 92.3913 93.4632 79.9542V61.7966H88.9569Z" fill="#DA5644"/>
</g>
<path d="M102.47 25.9033H79.9506C77.4732 25.9033 75.4442 27.9288 75.4442 30.4064V53.9118C75.4442 56.3892 76.4603 59.7146 77.6974 61.3016C78.9377 62.8916 81.9763 64.188 84.4538 64.188H97.9663C100.444 64.188 103.486 62.8916 104.723 61.3016C105.963 59.7146 106.976 56.3892 106.976 53.9118V30.4064C106.976 27.9288 104.947 25.9033 102.47 25.9033Z" fill="#F5F7FA"/>
<g filter="url(#filter2_d_127_2696)">
<path d="M48.412 76.9947C42.4209 74.0918 35.9665 75.3188 31.5228 80.515C27.0773 75.319 20.6229 74.0918 14.6319 76.9947C7.00816 81.1286 3.37554 90.5568 7.11204 100.434C11.8477 113.551 29.0222 119.694 31.5228 120.492C34.0218 119.694 51.1965 113.551 55.9321 100.434C59.6682 90.5571 56.0375 81.1288 48.412 76.9947Z" fill="#EAE2E0"/>
</g>
<path d="M55.9319 100.434C56.9002 97.8708 57.3736 95.3406 57.41 92.9257C50.5035 90.7052 39.8446 92.223 32.7781 94.9907C24.8951 98.0819 17.6074 99.7116 11.0605 97.3858C10.4535 97.1713 7.23218 95.9179 5.8103 95.3174C6.03138 96.9899 6.45853 98.7055 7.11183 100.434C11.8475 113.551 29.022 119.694 31.5226 120.492C34.0216 119.694 51.1963 113.551 55.9319 100.434Z" fill="#F26B41"/>
<path d="M105.326 40.3925C101.503 40.7885 97.6234 41.8936 93.8822 43.2825C87.9935 45.4696 82.4447 46.8588 77.3146 46.4331H75.4442V53.912C75.4442 56.3894 76.4603 59.7148 77.6974 61.3018C78.9377 62.8918 81.9763 64.1882 84.4537 64.1882H97.9663C100.444 64.1882 103.486 62.8918 104.723 61.3018C105.963 59.7148 106.976 56.3894 106.976 53.912V40.3928H105.326V40.3925Z" fill="#E85434"/>
<g opacity="0.2">
<path opacity="0.2" d="M48.4119 76.9947C45.5417 75.606 42.5643 75.1638 39.752 75.6522C41.1424 75.8864 42.5362 76.3319 43.9087 76.9947C51.5327 81.1286 55.1649 90.5568 51.4271 100.434C47.4583 111.43 34.7507 117.523 29.2693 119.678C30.3267 120.093 31.1185 120.364 31.5227 120.492C34.0216 119.694 51.1963 113.551 55.932 100.434C59.6681 90.557 56.0373 81.1288 48.4119 76.9947Z" fill="white"/>
</g>
<path opacity="0.2" d="M102.47 25.9033H97.9663C100.444 25.9033 102.47 27.9288 102.47 30.4064V53.9118C102.47 56.3892 101.457 59.7146 100.22 61.3016C98.9792 62.8916 95.941 64.188 93.4634 64.188H97.9663C100.444 64.188 103.486 62.8916 104.723 61.3016C105.963 59.7146 106.976 56.3892 106.976 53.9118V30.4064C106.976 27.9288 104.947 25.9033 102.47 25.9033Z" fill="white"/>
<defs>
<filter id="filter0_d_127_2696" x="66.4223" y="10.1383" width="51.821" height="65.3206" filterUnits="userSpaceOnUse" color-interpolation-filters="sRGB">
<feFlood flood-opacity="0" result="BackgroundImageFix"/>
<feColorMatrix in="SourceAlpha" type="matrix" values="0 0 0 0 0 0 0 0 0 0 0 0 0 0 0 0 0 0 127 0" result="hardAlpha"/>
<feOffset dx="1.12613" dy="1.12613"/>
<feGaussianBlur stdDeviation="1.68919"/>
<feComposite in2="hardAlpha" operator="out"/>
<feColorMatrix type="matrix" values="0 0 0 0 0 0 0 0 0 0 0 0 0 0 0 0 0 0 0.3 0"/>
<feBlend mode="normal" in2="BackgroundImageFix" result="effect1_dropShadow_127_2696"/>
<feBlend mode="normal" in="SourceGraphic" in2="effect1_dropShadow_127_2696" result="shape"/>
</filter>
<filter id="filter1_d_127_2696" x="51.4167" y="59.5443" width="46.5511" height="47.4366" filterUnits="userSpaceOnUse" color-interpolation-filters="sRGB">
<feFlood flood-opacity="0" result="BackgroundImageFix"/>
<feColorMatrix in="SourceAlpha" type="matrix" values="0 0 0 0 0 0 0 0 0 0 0 0 0 0 0 0 0 0 127 0" result="hardAlpha"/>
<feOffset dx="1.12613" dy="1.12613"/>
<feGaussianBlur stdDeviation="1.68919"/>
<feComposite in2="hardAlpha" operator="out"/>
<feColorMatrix type="matrix" values="0 0 0 0 0 0 0 0 0 0 0 0 0 0 0 0 0 0 0.3 0"/>
<feBlend mode="normal" in2="BackgroundImageFix" result="effect1_dropShadow_127_2696"/>
<feBlend mode="normal" in="SourceGraphic" in2="effect1_dropShadow_127_2696" result="shape"/>
</filter>
<filter id="filter2_d_127_2696" x="3.37836" y="73.2051" width="58.5397" height="51.7918" filterUnits="userSpaceOnUse" color-interpolation-filters="sRGB">
<feFlood flood-opacity="0" result="BackgroundImageFix"/>
<feColorMatrix in="SourceAlpha" type="matrix" values="0 0 0 0 0 0 0 0 0 0 0 0 0 0 0 0 0 0 127 0" result="hardAlpha"/>
<feOffset dx="1.12613" dy="1.12613"/>
<feGaussianBlur stdDeviation="1.68919"/>
<feComposite in2="hardAlpha" operator="out"/>
<feColorMatrix type="matrix" values="0 0 0 0 0 0 0 0 0 0 0 0 0 0 0 0 0 0 0.3 0"/>
<feBlend mode="normal" in2="BackgroundImageFix" result="effect1_dropShadow_127_2696"/>
<feBlend mode="normal" in="SourceGraphic" in2="effect1_dropShadow_127_2696" result="shape"/>
</filter>
</defs>
</svg>
